<!-- <svg style={{ width:"35", height:"35", fill:"none", stroke:"#8a8f95", strokeWidth:"2"}} viewBox="0 0 35 35">
    <g transform="translate(8, 10)">
        <CircleComponent cx="8.5" cy="8.5" r="1" fill="currentColor" />
        <path d="M4 7v3.859c0 .537 .213 1.052 .593 1.432l8.116 8.116a2.025 2.025 0 0 0 2.864 0l4.834 -4.834a2.025 2.025 0 0 0 0 -2.864l-8.117 -8.116a2.025 2.025 0 0 0 -1.431 -.593h-3.859a3 3 0 0 0 -3 3z"></path>
    </g>
</svg> -->

<svg xmlns="http://www.w3.org/2000/svg" viewBox="0 0 35 35" style="width: 35px; height: 35px; fill: none; stroke: #8a8f95; stroke-width: 2;">
    <g transform="translate(8, 10)">
        <circle cx="8.5" cy="8.5" r="1" fill="currentColor" />
        <path d="M4 7v3.859c0 .537 .213 1.052 .593 1.432l8.116 8.116a2.025 2.025 0 0 0 2.864 0l4.834 -4.834a2.025 2.025 0 0 0 0 -2.864l-8.117 -8.116a2.025 2.025 0 0 0 -1.431 -.593h-3.859a3 3 0 0 0 -3 3z"></path>
    </g>
</svg>
